<svg xmlns="http://www.w3.org/2000/svg" viewBox="0 0 1200 675" role="img" aria-label="SPACE TAP thumbnail">
  <defs>
    <radialGradient id="g" cx="50%" cy="0%" r="80%"><stop offset="0" stop-color="#36d7ff" stop-opacity=".35"/><stop offset=".55" stop-color="#07080d"/><stop offset="1" stop-color="#000"/></radialGradient>
    <filter id="glow"><feGaussianBlur stdDeviation="8" result="b"/><feMerge><feMergeNode in="b"/><feMergeNode in="SourceGraphic"/></feMerge></filter>
  </defs>
  <rect width="1200" height="675" fill="url(#g)"/>
  <g opacity=".22" stroke="#36d7ff" stroke-width="2"><path d="M0 75H1200"/><path d="M0 150H1200"/><path d="M0 225H1200"/><path d="M0 300H1200"/><path d="M0 375H1200"/><path d="M0 450H1200"/><path d="M0 525H1200"/><path d="M0 600H1200"/><path d="M75 0V675"/><path d="M150 0V675"/><path d="M225 0V675"/><path d="M300 0V675"/><path d="M375 0V675"/><path d="M450 0V675"/><path d="M525 0V675"/><path d="M600 0V675"/><path d="M675 0V675"/><path d="M750 0V675"/><path d="M825 0V675"/><path d="M900 0V675"/><path d="M975 0V675"/><path d="M1050 0V675"/><path d="M1125 0V675"/></g>
  <text x="600" y="280" text-anchor="middle" font-size="150" filter="url(#glow)">🚀</text>
  <text x="600" y="430" text-anchor="middle" fill="#f5fff9" font-family="Arial Black, Impact, sans-serif" font-size="70" letter-spacing="-2">SPACE TAP</text>
  <text x="600" y="500" text-anchor="middle" fill="#36d7ff" font-family="Arial, sans-serif" font-weight="900" font-size="32">MOBILE FIRST · INSTANT PLAY</text>
</svg>
